<svg xmlns="http://www.w3.org/2000/svg" viewBox="0 0 1200 630" role="img" aria-label="File sharing social preview">
  <defs>
    <linearGradient id="bg" x1="0%" y1="0%" x2="100%" y2="100%">
      <stop offset="0%" stop-color="#171717" />
      <stop offset="100%" stop-color="#26211d" />
    </linearGradient>
  </defs>
  <rect width="1200" height="630" fill="url(#bg)" />
  <circle cx="1050" cy="110" r="210" fill="#2f2924" opacity="0.8" />
  <circle cx="160" cy="560" r="220" fill="#221f1a" opacity="0.9" />
  <rect x="84" y="84" width="1032" height="462" rx="36" fill="#1f1c19" stroke="#3a332d" stroke-width="4" />
  <rect x="132" y="132" width="156" height="156" rx="34" fill="#f3efe8" />
  <path
    d="M190 249a18 18 0 0 1-18-18V151a18 18 0 0 1 18-18h53.646a21.6 21.6 0 0 1 15.336 6.364l27.676 27.676A21.6 21.6 0 0 1 293 182.376V231a18 18 0 0 1-18 18z"
    fill="none"
    stroke="#171717"
    stroke-linecap="round"
    stroke-linejoin="round"
    stroke-width="14"
  />
  <path
    d="M245 133v41a9 9 0 0 0 9 9h39"
    fill="none"
    stroke="#171717"
    stroke-linecap="round"
    stroke-linejoin="round"
    stroke-width="14"
  />
  <text x="340" y="206" fill="#f7efe5" font-family="system-ui, sans-serif" font-size="66" font-weight="700">File sharing</text>
  <text x="340" y="268" fill="#b9ada0" font-family="system-ui, sans-serif" font-size="30">Simple public uploads, organized by file type.</text>
  <rect x="132" y="344" width="936" height="140" rx="24" fill="#171717" stroke="#342e28" stroke-width="3" />
  <rect x="168" y="380" width="240" height="68" rx="18" fill="#f3efe8" />
  <text x="193" y="423" fill="#171717" font-family="system-ui, sans-serif" font-size="28" font-weight="700">Upload any supported file</text>
  <text x="450" y="405" fill="#f7efe5" font-family="system-ui, sans-serif" font-size="28">Generate a public link for images, video, audio, PDFs, text, and blobs.</text>
  <text x="450" y="445" fill="#b9ada0" font-family="system-ui, sans-serif" font-size="24">Ready for browser install prompts, mobile homescreens, and social link previews.</text>
</svg>
