<svg xmlns="http://www.w3.org/2000/svg" viewBox="0 0 1200 630" role="img" aria-label="File sharing social preview">
  <defs>
    <linearGradient id="bg" x1="0%" y1="0%" x2="100%" y2="100%">
      <stop offset="0%" stop-color="#151413" />
      <stop offset="55%" stop-color="#201d1a" />
      <stop offset="100%" stop-color="#2a241f" />
    </linearGradient>
    <linearGradient id="glow" x1="0%" y1="0%" x2="100%" y2="100%">
      <stop offset="0%" stop-color="#3a2f25" stop-opacity="0.55" />
      <stop offset="100%" stop-color="#3a2f25" stop-opacity="0" />
    </linearGradient>
  </defs>

  <rect width="1200" height="630" fill="url(#bg)" />
  <circle cx="1020" cy="118" r="235" fill="url(#glow)" />
  <circle cx="138" cy="578" r="170" fill="#1b1815" opacity="0.85" />

  <rect x="78" y="78" width="1044" height="474" rx="34" fill="#1b1815" stroke="#3c342d" stroke-width="3" />

  <rect x="138" y="146" width="156" height="156" rx="36" fill="#1f1c19" />
  <g transform="translate(156 164) scale(5.25)" fill="none" stroke="#ffffff" stroke-width="2" stroke-linecap="round" stroke-linejoin="round">
    <path d="M6 22a2 2 0 0 1-2-2V4a2 2 0 0 1 2-2h8a2.4 2.4 0 0 1 1.704.706l3.588 3.588A2.4 2.4 0 0 1 20 8v12a2 2 0 0 1-2 2z" />
    <path d="M14 2v5a1 1 0 0 0 1 1h5" />
  </g>

  <text x="344" y="212" fill="#f7efe5" font-family="system-ui, sans-serif" font-size="68" font-weight="700">File sharing</text>

  <text x="344" y="278" fill="#c1b5a8" font-family="system-ui, sans-serif" font-size="32">
    <tspan x="344" dy="0">Upload files and generate a public link</tspan>
    <tspan x="344" dy="42">for sharing in a few seconds.</tspan>
  </text>

  <rect x="138" y="384" width="924" height="94" rx="22" fill="#171513" stroke="#322b25" stroke-width="3" />

  <rect x="172" y="408" width="170" height="46" rx="14" fill="#f3efe8" />
  <text x="257" y="439" fill="#171513" font-family="system-ui, sans-serif" font-size="24" font-weight="700" text-anchor="middle">Images</text>

  <rect x="362" y="408" width="146" height="46" rx="14" fill="#2b2621" />
  <text x="435" y="439" fill="#f7efe5" font-family="system-ui, sans-serif" font-size="24" font-weight="600" text-anchor="middle">Video</text>

  <rect x="522" y="408" width="146" height="46" rx="14" fill="#2b2621" />
  <text x="595" y="439" fill="#f7efe5" font-family="system-ui, sans-serif" font-size="24" font-weight="600" text-anchor="middle">Audio</text>

  <rect x="682" y="408" width="122" height="46" rx="14" fill="#2b2621" />
  <text x="743" y="439" fill="#f7efe5" font-family="system-ui, sans-serif" font-size="24" font-weight="600" text-anchor="middle">PDF</text>

  <rect x="818" y="408" width="210" height="46" rx="14" fill="#2b2621" />
  <text x="923" y="439" fill="#f7efe5" font-family="system-ui, sans-serif" font-size="24" font-weight="600" text-anchor="middle">Text + Blob</text>
</svg>
